<?xml version="1.0" standalone="no"?>
<!DOCTYPE svg PUBLIC "-//W3C//DTD SVG 20010904//EN"
 "http://www.w3.org/TR/2001/REC-SVG-20010904/DTD/svg10.dtd">
<svg version="1.0" xmlns="http://www.w3.org/2000/svg"
 width="1024.000000pt" height="1024.000000pt" viewBox="0 0 1024.000000 1024.000000"
 preserveAspectRatio="xMidYMid meet">

<g transform="translate(0.000000,1024.000000) scale(0.100000,-0.100000)"
fill="#000000" stroke="none">
<path d="M0 5120 l0 -5120 5120 0 5120 0 0 5120 0 5120 -5120 0 -5120 0 0
-5120z m4821 3595 c120 -25 231 -92 313 -188 63 -75 86 -127 91 -205 l5 -67
-14 47 c-15 50 -40 91 -77 123 l-23 20 22 -29 c19 -25 33 -70 16 -53 -6 6 -39
-20 -81 -63 -28 -29 -47 -71 -36 -79 4 -3 19 -22 32 -41 18 -26 5 -17 -46 32
-126 117 -262 164 -453 155 -115 -5 -233 -38 -351 -98 -100 -50 -250 -216
-295 -326 -9 -21 -31 -71 -50 -111 -19 -41 -34 -78 -34 -83 0 -5 -5 -9 -11 -9
-7 0 -10 -17 -8 -44 2 -24 1 -42 -2 -40 -4 2 -19 38 -34 79 -26 71 -27 82 -22
198 6 157 29 262 77 362 93 195 330 365 582 420 87 19 309 19 399 0z m1414
-14 c134 -35 270 -109 365 -198 45 -42 102 -103 126 -134 58 -76 112 -191 119
-254 l5 -50 -18 50 c-28 78 -50 119 -83 156 -17 19 -26 27 -20 18 19 -27 4
-44 -41 -46 -24 -1 -44 -5 -45 -10 -9 -23 -22 -33 -45 -35 l-27 -2 37 -51 c35
-47 32 -45 -33 21 -58 59 -88 80 -175 122 -125 60 -177 72 -315 72 -134 0
-192 -13 -290 -63 -99 -52 -210 -161 -259 -257 -24 -48 -38 -65 -52 -63 -10 1
-32 3 -49 5 l-30 3 -5 -80 -5 -80 -7 85 c-11 120 -10 334 2 404 13 82 51 156
117 227 44 47 77 70 157 110 55 27 130 56 166 64 93 21 300 14 405 -14z
m-2891 0 c10 -11 16 -28 14 -38 -7 -35 -46 -43 -224 -43 l-170 0 -35 -36 -34
-35 -1 -182 c0 -100 -1 -187 -2 -193 -4 -21 -47 -33 -73 -20 -24 12 -24 12
-27 211 -3 222 0 237 56 286 71 62 98 69 298 69 166 0 182 -2 198 -19z m4377
4 c54 -19 115 -76 140 -130 16 -34 19 -66 19 -223 l0 -182 -27 -11 c-21 -8
-34 -7 -53 3 l-25 14 0 169 c0 94 -4 180 -8 192 -4 12 -24 36 -43 52 l-35 31
-175 0 c-102 0 -183 4 -195 10 -22 12 -26 59 -7 78 19 19 353 16 409 -3z
m-102 -263 c12 -23 19 -218 8 -229 -14 -13 -260 -4 -275 11 -14 14 -17 53 -14
164 l2 72 135 0 c119 0 135 -2 144 -18z m-2906 -187 c113 -29 217 -101 289
-199 36 -50 36 -67 1 -34 -30 27 -113 88 -101 74 9 -11 -21 -35 -44 -36 -9 0
-20 -9 -23 -20 -3 -11 -10 -20 -15 -20 -4 0 -17 -15 -28 -34 l-20 -34 28 -21
c27 -20 90 -101 90 -117 0 -4 -24 16 -53 44 -62 58 -125 92 -219 117 -165 44
-350 -18 -520 -173 -54 -49 -75 -62 -92 -58 -11 3 -45 6 -75 6 -53 0 -53 0
-47 28 10 39 72 169 97 200 58 75 242 207 337 242 127 48 290 63 395 35z
m1492 -9 c221 -53 420 -203 504 -381 56 -117 58 -125 27 -125 -18 0 -32 11
-53 42 -26 39 -34 44 -83 51 -30 4 -63 15 -74 25 -20 17 -20 17 0 -9 10 -15
24 -24 29 -21 6 3 7 2 3 -3 -4 -4 4 -29 18 -56 13 -27 23 -49 21 -49 -2 0 -19
23 -38 50 -19 28 -61 71 -93 96 -113 89 -213 120 -361 112 -94 -5 -150 -26
-235 -85 l-35 -25 32 29 c30 27 32 31 20 56 -9 20 -19 27 -39 27 -16 0 -28 4
-28 9 0 5 -13 11 -30 14 -16 4 -37 15 -47 25 -17 17 -20 16 -72 -33 -29 -27
-62 -63 -73 -80 -18 -28 -19 -28 -13 -5 20 77 185 259 270 299 103 48 240 63
350 37z m2383 -309 c4 -152 9 -147 -148 -147 -118 0 -130 2 -140 19 -15 28
-13 194 3 213 19 25 34 27 162 25 l120 -2 3 -108z m-1448 -18 c221 -55 441
-240 550 -464 61 -124 90 -248 90 -380 0 -155 -22 -253 -89 -395 -40 -86 -39
-63 3 53 19 52 40 128 46 170 18 107 8 305 -18 382 -11 33 -20 54 -21 47 -2
-32 -51 -56 -108 -54 -24 1 -33 -4 -38 -18 -4 -11 -18 -23 -33 -26 -15 -3 -32
-7 -39 -9 -6 -2 -14 1 -17 8 -4 7 -4 -33 -1 -88 5 -94 -6 -200 -23 -217 -4 -4
-6 41 -4 99 4 132 -16 228 -64 309 -41 70 -113 140 -170 165 -49 22 -207 51
-230 42 -14 -5 -16 -2 -11 18 17 67 29 223 23 302 l-7 87 43 -6 c24 -4 77 -15
118 -25z m-3483 -67 c1 -55 11 -124 27 -187 15 -55 26 -101 26 -102 0 -2 -17
-3 -38 -3 -58 0 -189 -36 -241 -67 -158 -92 -228 -254 -219 -502 4 -92 9 -125
26 -159 16 -33 17 -40 5 -30 -22 18 -53 87 -53 120 0 15 -4 30 -10 33 -5 3
-10 2 -10 -4 0 -6 -11 -6 -30 -1 -33 9 -95 6 -153 -8 -31 -8 -39 -7 -47 7 -19
30 0 -90 28 -179 14 -47 50 -132 79 -189 58 -114 41 -115 -32 -1 -54 84 -68
117 -98 220 -72 247 -58 475 42 683 78 163 209 291 390 382 84 42 195 74 261
74 l45 1 2 -88z m971 -17 c24 -9 42 -19 40 -20 -2 -2 -29 3 -60 11 -44 12 -72
13 -120 5 -92 -14 -129 -25 -128 -36 1 -9 -44 -25 -82 -28 -9 -1 -15 -3 -13
-6 3 -2 -11 -15 -30 -28 -19 -13 -35 -29 -35 -36 0 -9 -3 -8 -9 1 -6 10 -23
-5 -61 -52 -80 -99 -79 -69 1 40 89 121 207 177 364 171 56 -3 106 -10 133
-22z m1686 -14 c73 -32 111 -67 145 -134 17 -34 26 -53 19 -42 -27 42 -86 91
-143 119 -33 15 -69 37 -80 46 -33 31 -146 33 -235 5 -38 -11 -17 5 27 21 54
21 206 12 267 -15z m-704 -245 c120 -19 368 -86 485 -133 459 -182 849 -500
1119 -913 76 -115 176 -300 176 -325 0 -30 -88 -181 -168 -288 -90 -121 -378
-412 -512 -518 -526 -417 -1147 -615 -1644 -523 -195 36 -328 69 -426 106
-140 53 -302 124 -370 161 -205 114 -444 300 -610 473 -108 113 -289 364 -359
497 -57 110 -63 149 -29 213 9 16 35 67 60 114 53 103 66 124 139 220 97 128
239 275 381 393 160 133 471 317 672 397 157 62 419 127 581 144 78 8 411 -4
505 -18z m-1757 -183 c-7 -2 -19 -2 -25 0 -7 3 -2 5 12 5 14 0 19 -2 13 -5z
m-103 -24 c-8 -6 -68 -37 -133 -69 -99 -49 -127 -68 -175 -120 -73 -80 -79
-92 -88 -170 l-7 -65 -9 40 c-5 24 -5 67 2 110 14 92 18 105 36 105 8 0 17 7
20 15 4 10 14 13 30 9 15 -4 24 -2 24 5 0 6 5 11 10 11 6 0 34 17 62 37 52 36
198 102 228 102 13 1 13 0 0 -10z m3467 -72 c13 -11 25 -29 29 -40 5 -15 8
-17 15 -6 16 26 52 -79 55 -161 2 -41 1 -66 -2 -55 -27 104 -48 136 -104 161
-82 37 -104 44 -129 44 -35 0 -87 48 -71 64 6 6 34 16 63 21 61 12 112 3 144
-28z m-4336 -754 c7 -27 12 -51 11 -55 -1 -5 1 -8 6 -8 4 0 7 -19 7 -43 1 -49
48 -157 96 -216 35 -45 56 -56 74 -41 18 15 23 3 18 -41 -8 -55 16 -249 34
-277 19 -31 15 -228 -5 -224 -8 1 -11 -2 -8 -7 10 -15 -56 -71 -84 -71 -33 0
-49 -28 -52 -95 l-3 -50 -14 45 c-8 25 -17 83 -21 130 -4 47 -8 78 -8 69 -2
-14 -18 -16 -109 -15 l-108 1 3 -50 c1 -27 16 -106 31 -175 46 -197 53 -250
36 -266 -12 -13 -17 -5 -36 58 -11 40 -36 125 -55 188 -74 249 -101 522 -69
692 22 116 65 240 116 338 47 89 106 173 118 166 5 -3 14 -27 22 -53z m4977
-30 c62 -106 82 -150 125 -273 l40 -115 4 -195 c3 -163 0 -213 -16 -305 -21
-112 -21 -81 -1 95 12 106 11 299 -2 345 -5 17 -18 64 -29 105 -32 123 -77
240 -125 321 -41 71 -49 89 -40 89 2 0 22 -30 44 -67z m612 -298 l0 -75 -65 0
-65 0 0 69 0 70 38 4 c20 2 49 4 65 5 l27 2 0 -75z m240 -6 l0 -69 -60 0 -60
0 0 73 0 72 60 -3 60 -4 0 -69z m-5460 -669 c-10 -36 -19 -58 -19 -49 -1 19
29 122 34 117 2 -2 -5 -32 -15 -68z m168 7 c-1 -45 6 -65 51 -144 64 -112 78
-125 135 -127 51 -1 48 4 66 -121 15 -107 27 -143 62 -187 l29 -38 -25 -25
c-14 -14 -30 -34 -36 -45 -6 -11 -17 -20 -25 -20 -9 0 -23 -9 -32 -20 -10 -11
-25 -20 -35 -20 -10 0 -18 -5 -18 -11 0 -6 -9 -8 -22 -3 -22 6 -22 6 -5 -19
23 -36 21 -40 -11 -23 -37 19 -92 87 -126 155 -66 129 -97 385 -66 536 12 57
48 165 55 165 2 0 3 -24 3 -53z m3859 -332 c-6 -154 -23 -236 -69 -329 -31
-62 -48 -72 -24 -15 40 95 75 311 77 469 1 75 2 81 11 50 6 -20 8 -93 5 -175z
m-3248 -145 c23 -46 66 -97 189 -222 152 -154 168 -168 309 -253 166 -101 211
-142 300 -273 69 -103 85 -164 64 -247 -19 -76 -93 -195 -135 -217 -12 -6 -2
9 22 36 84 91 116 201 89 297 -22 74 -107 208 -165 260 -27 24 -104 75 -172
114 -186 104 -331 217 -407 317 -34 44 -133 225 -133 243 0 17 14 -2 39 -55z
m2630 -345 c63 -39 146 -65 205 -65 66 0 160 24 200 52 30 21 31 21 13 1 -56
-65 -235 -93 -339 -53 -82 31 -146 78 -175 130 l-26 45 39 -42 c22 -23 59 -54
83 -68z m-2054 45 c3 -6 -1 -7 -9 -4 -18 7 -21 14 -7 14 6 0 13 -4 16 -10z
m-616 -56 c-40 -44 -95 -64 -174 -62 l-70 1 70 7 c70 7 153 39 176 66 6 8 14
14 17 14 3 0 -5 -12 -19 -26z m3577 -106 c-79 -104 -251 -228 -319 -228 -10 0
-28 -6 -40 -14 -35 -23 -169 -48 -259 -49 -107 -1 -170 14 -294 73 -110 52
-155 87 -51 41 212 -95 332 -111 512 -66 61 15 126 29 145 30 19 2 36 8 38 14
2 6 11 11 20 11 15 0 15 2 2 11 -12 9 -12 10 3 5 10 -3 28 -1 39 5 17 9 18 13
7 21 -11 8 -10 8 5 4 13 -5 29 6 56 36 22 23 46 43 55 44 23 3 55 34 55 53 0
16 58 81 72 81 5 0 -16 -33 -46 -72z m-2649 -20 c32 -28 64 -61 72 -72 8 -12
-17 8 -55 43 -38 36 -73 68 -78 73 -6 4 -7 8 -3 8 4 0 33 -23 64 -52z m-850
-131 c-176 -159 -465 -190 -689 -76 -39 20 -57 39 -37 39 6 0 43 -11 81 -25
112 -40 219 -55 318 -44 140 16 236 50 325 117 57 43 58 38 2 -11z m2206 -24
c-7 -2 -21 -2 -30 0 -10 3 -4 5 12 5 17 0 24 -2 18 -5z m-60 -10 c-7 -2 -19
-2 -25 0 -7 3 -2 5 12 5 14 0 19 -2 13 -5z m-805 -185 c3 -170 8 -200 56 -303
52 -110 116 -190 199 -249 99 -70 187 -100 367 -126 55 -8 46 -8 -53 -4 -144
5 -218 27 -320 93 -39 26 -94 72 -121 102 -55 60 -118 185 -135 267 -13 61
-15 356 -3 348 5 -3 9 -60 10 -128z m-942 -4 c10 -8 13 -12 5 -8 -8 4 -42 10
-75 14 l-61 7 56 2 c37 1 62 -4 75 -15z m1902 -29 l27 -28 -33 24 c-25 18 -46
23 -91 24 -33 0 -54 4 -48 8 7 4 36 6 65 4 42 -3 59 -9 80 -32z m-573 -31
c-32 -104 -12 -201 58 -281 41 -47 41 -47 9 -24 -70 49 -109 153 -93 247 10
63 29 120 36 112 3 -3 -2 -27 -10 -54z m-1532 22 c-10 -13 -20 -22 -22 -20 -4
4 29 44 36 44 2 0 -4 -11 -14 -24z m-1390 -24 c13 -14 16 -50 19 -196 l3 -178
39 -34 39 -34 171 0 c187 0 216 -7 216 -55 0 -39 -32 -48 -188 -53 -182 -6
-234 4 -297 60 -79 70 -85 90 -85 297 0 175 1 180 22 195 29 20 41 20 61 -2z
m2356 -75 c2 -82 -28 -174 -88 -265 -89 -135 -155 -188 -298 -241 -153 -56
-281 -58 -478 -6 -201 53 -382 164 -488 299 l-32 41 37 -30 c20 -16 42 -40 49
-52 7 -13 15 -21 17 -18 3 3 12 -4 19 -15 15 -21 39 -18 26 3 -3 6 22 -13 58
-41 242 -197 597 -250 841 -126 80 40 114 70 179 156 95 124 115 173 136 333
5 42 7 46 14 25 4 -14 7 -42 8 -63z m2631 56 c20 -26 21 -36 18 -193 -3 -182
-11 -212 -72 -272 -63 -63 -102 -73 -292 -73 -182 0 -204 5 -204 49 1 49 8 51
197 56 188 5 205 9 242 56 19 25 21 40 21 193 0 135 3 171 16 189 20 30 48 28
74 -5z m-1920 -75 c9 -45 21 -68 58 -110 l47 -52 -42 33 c-53 42 -83 102 -82
162 1 50 2 47 19 -33z m-1233 -51 c-28 -62 -70 -97 -142 -122 -107 -37 -214
-17 -275 51 -14 15 -19 24 -12 20 15 -9 15 -1 0 27 -7 15 2 10 31 -16 58 -52
97 -67 176 -67 110 0 172 38 216 131 13 28 25 46 27 40 2 -6 -7 -35 -21 -64z
m2112 -73 c-46 -77 -200 -219 -303 -281 -91 -54 -272 -120 -353 -128 -40 -4
-33 -1 38 19 47 14 134 47 192 75 59 28 111 51 116 51 5 0 23 13 40 29 18 17
41 33 52 36 10 4 19 10 19 15 0 5 37 48 82 95 45 48 95 102 112 121 42 49 44
34 5 -32z m-2303 -983 c27 -6 80 -24 118 -41 l68 -31 -41 -35 c-23 -20 -41
-42 -41 -50 0 -19 -6 -18 -41 8 -23 17 -47 24 -104 26 -64 4 -76 1 -94 -17
-43 -43 -13 -87 76 -111 136 -36 154 -43 194 -78 36 -33 42 -44 46 -89 7 -68
-1 -95 -39 -139 -45 -51 -108 -77 -193 -78 -59 -1 -82 4 -145 32 -87 38 -122
62 -102 69 8 3 27 25 42 50 18 27 31 40 35 33 14 -23 130 -70 170 -70 47 0
100 29 110 60 11 35 -23 59 -120 86 -117 33 -160 56 -191 104 -20 29 -26 52
-26 90 0 92 69 161 181 180 25 4 47 8 47 9 1 0 23 -3 50 -8z m-1121 -113 c-20
-51 -51 -127 -70 -168 -50 -112 -111 -260 -125 -303 l-12 -38 -61 3 -61 3
-133 299 c-73 165 -133 301 -133 303 0 2 30 3 67 1 l67 -3 74 -170 c41 -93 82
-191 91 -217 9 -26 18 -48 21 -48 3 0 26 53 52 118 26 64 66 163 89 219 l41
102 62 3 c33 2 62 0 64 -4 2 -4 -13 -49 -33 -100z m2135 45 l0 -63 -110 0
-110 0 -2 -242 -3 -243 -59 -3 -59 -3 6 228 c3 125 8 236 12 245 6 15 -3 18
-92 20 l-98 3 -3 60 -3 60 261 0 260 0 0 -62z m-1657 -65 c4 -66 7 -204 7
-305 l0 -183 -65 0 -65 0 0 305 0 305 58 0 59 0 6 -122z m2433 103 c135 -61
176 -219 86 -339 -13 -19 -37 -38 -53 -44 -16 -5 -29 -11 -29 -13 0 -2 30 -46
66 -99 l65 -96 -55 -1 c-31 -1 -60 -2 -65 -3 -8 -1 -113 149 -123 174 -2 4
-38 5 -80 2 l-78 -5 -2 -61 c-2 -90 -3 -96 -11 -96 -4 0 -28 0 -55 0 l-47 0 0
300 0 300 170 0 c144 0 176 -3 211 -19z m624 -291 l0 -310 -55 0 -55 0 -1 53
c-1 28 -2 168 -3 309 l-1 258 58 0 57 0 0 -310z m714 277 c19 -34 89 -192 150
-340 20 -49 52 -120 71 -158 19 -38 35 -73 35 -79 0 -7 -23 -10 -62 -8 l-63 3
-26 65 -25 64 -148 1 -148 0 -34 -67 -34 -68 -56 0 c-50 0 -55 2 -49 18 4 9
20 51 35 92 65 177 92 243 154 373 l66 137 57 0 c55 0 59 -2 77 -33z m-2595
-976 c58 -115 67 -154 34 -159 -14 -2 -23 3 -28 18 -7 23 -42 40 -82 40 -18 0
-28 -8 -36 -30 -9 -24 -17 -30 -40 -30 -35 0 -33 10 23 125 22 44 44 92 49
108 6 15 15 27 21 27 5 0 32 -44 59 -99z m-1299 36 c10 -27 28 -66 38 -89 l20
-40 21 47 c11 26 25 64 31 85 11 41 37 60 47 34 6 -15 -21 -97 -63 -192 -17
-38 -28 -53 -40 -50 -10 2 -36 46 -65 112 -67 150 -67 148 -34 144 22 -2 31
-12 45 -51z m613 42 c23 -13 37 -28 37 -43 0 -7 -30 -5 -95 6 -42 7 -18 -28
38 -57 66 -34 81 -53 68 -87 -23 -61 -105 -87 -153 -48 -16 12 -28 26 -28 31
0 5 29 9 64 9 36 0 67 4 70 8 2 4 -22 21 -55 37 -97 47 -107 72 -54 129 26 28
70 34 108 15z m232 -76 c8 -96 15 -113 51 -113 47 0 64 32 64 121 0 71 2 80
18 77 15 -3 17 -16 17 -95 0 -84 -2 -94 -25 -118 -36 -39 -65 -48 -105 -31
-48 21 -65 60 -65 154 0 79 3 92 25 92 9 0 15 -29 20 -87z m663 74 c6 -7 14
-52 18 -100 l7 -87 48 0 c46 0 49 -2 49 -25 0 -26 -1 -26 -72 -23 l-73 3 -3
123 c-2 117 2 138 26 109z m796 -3 c13 -12 16 -39 16 -125 0 -60 -4 -109 -9
-109 -5 0 -16 -3 -25 -6 -14 -5 -16 10 -16 125 0 74 4 131 9 131 5 0 17 -7 25
-16z m318 -103 c32 -62 58 -119 58 -127 0 -8 -10 -14 -26 -14 -19 0 -28 7 -35
30 -10 28 -14 30 -65 30 -50 0 -54 -2 -60 -27 -8 -32 -21 -43 -41 -36 -20 8
-16 24 22 115 61 142 65 150 77 146 7 -3 38 -55 70 -117z m494 105 c11 -8 29
-33 39 -55 11 -22 22 -41 25 -40 3 0 16 22 29 49 21 43 28 50 54 50 l29 0 -18
-27 c-10 -16 -30 -46 -46 -67 -23 -32 -28 -49 -28 -96 0 -56 -1 -57 -25 -52
-23 4 -25 9 -25 55 0 28 -6 58 -13 66 -8 9 -28 42 -45 74 -28 50 -30 57 -14
57 10 0 27 -6 38 -14z m-2778 -118 l3 -118 -26 0 -25 0 0 121 c0 119 0 120 23
117 21 -3 22 -7 25 -120z m1762 84 c34 -33 40 -45 40 -80 0 -36 -6 -48 -41
-82 -40 -38 -44 -40 -108 -40 l-66 0 0 120 0 120 67 0 c64 0 69 -2 108 -38z
m857 -7 c25 -44 22 -67 -9 -102 -20 -21 -20 -21 3 -52 12 -17 27 -31 31 -31 5
0 6 -4 3 -10 -3 -5 -21 -10 -38 -10 -28 1 -35 7 -52 43 -14 29 -27 43 -44 45
-23 4 -23 2 -17 -43 7 -45 7 -46 -16 -43 -22 3 -23 6 -26 126 l-3 123 73 -3
72 -3 23 -40z m-3287 -85 c0 -20 -7 -20 -285 -20 -278 0 -285 0 -285 20 0 20
7 20 285 20 278 0 285 0 285 -20z m4430 16 c0 -2 3 -11 6 -20 6 -14 -25 -16
-295 -16 -294 0 -301 0 -301 20 0 20 7 20 295 20 162 0 295 -2 295 -4z"/>
<path d="M6660 8366 c0 -2 8 -10 18 -17 15 -13 16 -12 3 4 -13 16 -21 21 -21
13z"/>
<path d="M5488 7993 c7 -3 16 -2 19 1 4 3 -2 6 -13 5 -11 0 -14 -3 -6 -6z"/>
<path d="M7410 8374 c-13 -34 -13 -67 2 -82 7 -7 40 -12 80 -12 l68 0 0 50 c0
59 -14 70 -90 70 -45 0 -52 -3 -60 -26z"/>
<path d="M8368 7983 c-31 -8 -35 -115 -4 -135 15 -10 128 -10 144 1 18 11 26
80 13 114 -10 26 -14 27 -73 26 -35 -1 -71 -3 -80 -6z"/>
<path d="M5225 7473 c-252 -11 -596 -108 -873 -247 -110 -55 -315 -191 -421
-280 -90 -76 -241 -231 -327 -336 -101 -125 -240 -358 -231 -389 12 -44 226
-343 343 -479 65 -75 289 -270 413 -358 137 -98 439 -247 621 -308 179 -59
280 -77 490 -83 285 -9 524 36 786 147 215 92 344 167 535 311 164 124 217
171 367 332 123 131 342 403 342 425 0 16 -235 363 -303 447 -186 231 -454
439 -751 585 -340 166 -677 245 -991 233z m360 -168 c223 -57 347 -118 490
-242 255 -219 388 -526 371 -853 -18 -345 -176 -653 -437 -850 -104 -78 -172
-112 -322 -161 -271 -89 -578 -75 -850 39 -219 92 -418 276 -528 487 -20 39
-56 126 -80 195 l-44 125 1 195 c0 181 2 202 28 295 103 373 380 653 756 761
121 34 173 41 342 43 126 1 148 -2 273 -34z"/>
<path d="M5145 7245 c-189 -36 -331 -96 -470 -200 -188 -140 -329 -346 -387
-565 -19 -71 -22 -111 -22 -240 0 -137 3 -166 27 -253 60 -218 200 -428 362
-542 86 -60 92 -63 72 -35 -14 20 -14 26 -1 51 7 15 14 37 14 48 0 11 4 22 9
25 28 17 12 139 -27 210 -2 4 27 -18 65 -50 93 -78 228 -148 334 -174 89 -21
154 -26 145 -11 -4 5 -1 11 6 13 10 4 10 10 0 32 -6 15 -12 58 -12 96 0 82 -3
85 -121 126 -43 15 -93 40 -111 56 l-33 28 46 -25 c153 -83 342 -92 473 -22
74 39 168 125 203 184 38 65 41 43 4 -27 -22 -43 -29 -66 -23 -78 5 -9 12 -50
16 -90 3 -40 13 -84 22 -97 12 -18 12 -24 2 -29 -7 -3 -3 -3 10 0 34 8 26 -7
-21 -43 -55 -41 -142 -81 -226 -104 -36 -9 -56 -18 -43 -18 33 -1 137 35 214
76 107 56 250 210 315 337 37 73 53 122 68 206 l13 75 1 -60 c1 -59 2 -61 59
-119 31 -32 57 -63 57 -68 0 -10 75 -78 87 -78 5 0 4 -9 -2 -19 -15 -29 -30
-71 -25 -71 14 0 70 151 90 240 41 186 41 313 0 476 -36 141 -169 361 -281
464 -99 93 -270 193 -399 235 -162 52 -361 68 -510 40z m3 -331 c65 -73 -9
-181 -105 -155 -65 18 -81 72 -40 132 43 63 100 73 145 23z m-272 -178 c52
-52 45 -119 -16 -151 -75 -39 -150 -2 -150 73 0 43 28 88 64 102 41 17 68 10
102 -24z m454 -233 c122 -81 138 -171 47 -270 -53 -57 -84 -73 -147 -73 -108
0 -181 72 -188 185 -4 58 -2 64 27 97 46 52 104 78 176 78 40 0 69 -6 85 -17z"/>
<path d="M5393 5503 c9 -2 23 -2 30 0 6 3 -1 5 -18 5 -16 0 -22 -2 -12 -5z"/>
<path d="M5288 5493 c7 -3 16 -2 19 1 4 3 -2 6 -13 5 -11 0 -14 -3 -6 -6z"/>
<path d="M6037 2844 c-1 -1 -1 -48 1 -104 l3 -102 109 4 c98 3 111 5 134 27
49 46 41 130 -16 158 -18 10 -223 24 -231 17z"/>
<path d="M7534 2753 c-35 -96 -45 -118 -66 -140 l-21 -23 39 0 c21 0 69 -3
107 -7 60 -5 67 -4 67 12 0 25 -87 205 -99 205 -5 0 -17 -21 -27 -47z"/>
<path d="M4970 1941 c-18 -34 -12 -58 16 -65 39 -10 48 5 30 48 -17 40 -30 45
-46 17z"/>
<path d="M6289 1927 c-11 -24 -11 -30 2 -38 32 -20 50 12 25 46 -14 19 -15 19
-27 -8z"/>
<path d="M5730 1906 l0 -74 43 9 c50 11 67 31 67 75 0 40 -30 64 -77 64 l-33
0 0 -74z"/>
<path d="M6580 1941 c0 -28 3 -31 33 -31 72 0 76 52 3 58 -34 3 -36 2 -36 -27z"/>
</g>
</svg>
